<?xml version="1.0" encoding="utf-8"?>
<!-- Generator: Adobe Illustrator 19.1.0, SVG Export Plug-In . SVG Version: 6.00 Build 0)  -->
<svg version="1.1" id="New_Wordmark" xmlns="http://www.w3.org/2000/svg" xmlns:xlink="http://www.w3.org/1999/xlink" x="0px"
	 y="0px" viewBox="0 0 708.7 129.9" enable-background="new 0 0 708.7 129.9" xml:space="preserve">
<path fill="#0B5ED7" d="M240.4,2.6h-38.1v49.6h-39.6V2.6h-38.1v124.7h38.1V78.3h39.6v49.1h38.1V2.6L240.4,2.6z M372.8,102.3V2.6
	h-38.1v124.7h68.8l5.7-25H372.8L372.8,102.3z M306.6,2.6h-38.1v124.7h38.1V2.6L306.6,2.6z M461,2.6h-38.1v124.7H461V2.6L461,2.6z
	 M648.7,34.4c0-6.8,6.8-9.9,17.7-9.9c12,0,25,2.6,33.9,6.3l-3.1-27.1C687.3,1.6,678.4,0,662.3,0c-30.8,0-51.6,12.1-51.6,37.6
	c0,43.8,59.4,35,59.4,55.3c0,7.8-5.7,12-19.8,12c-12.5,0-31.8-4.2-43.3-9.9l4.2,28.7c11.5,4.2,27.1,6.3,39.6,6.3
	c31.8,0,57.9-10.4,57.9-41.7C708.7,46.4,648.7,54.3,648.7,34.4L648.7,34.4z M541.3,97.6c35.5,0,57.9-18.3,57.9-50.1
	c0-35-24-47.5-63.1-47.5c-15.1,0-33.4,1-46.4,2.6v124.7h38.1V97.6H541.3L541.3,97.6z M561.6,48c0,16.2-7.8,27.1-27.6,27.1h-6.3V23.6
	c2.2-0.1,4.3-0.1,6.3-0.1C552.7,23.5,561.6,32.4,561.6,48L561.6,48z M51.6,97.6c35.5,0,57.9-18.3,57.9-50.1c0-35-24-47.5-63.1-47.5
	C31.3,0,13,1,0,2.6v124.7h38.1V97.6H51.6L51.6,97.6z M72,48c0,16.2-7.8,27.1-27.6,27.1h-6.3V23.6c2.2-0.1,4.3-0.1,6.3-0.1
	C63.1,23.5,72,32.4,72,48L72,48z"/>
</svg>
